<svg class="logo with-dark-mode item-3 photo-and-logo-column" width="300px" height="65px" xmlns="http://www.w3.org/2000/svg" xmlns:xlink="http://www.w3.org/1999/xlink" viewBox="0 0 300 65" version="1.1" aria-label="Circlek logo">
  <g id="tftmtwjenu-Circlek-logo" stroke="none" stroke-width="1" fill="none" fill-rule="evenodd">
    <g id="tftmtwjenu-Group-18" transform="translate(0.000000, -0.000000)" fill-rule="nonzero">
      <path d="M9.18873695,18.438074 C13.108586,18.438074 15.3739532,16.7411634 17.0538885,14.4364041 L13.337668,11.8023935 C12.2686183,13.0940718 11.174115,13.9551906 9.31600478,13.9551906 C6.82155541,13.9551906 5.06525943,11.8783746 5.06525943,9.21903702 L5.06525943,9.16838297 C5.06525943,6.58502644 6.82155541,4.45755636 9.31600478,4.45755636 C11.0213936,4.45755636 12.1922576,5.29334818 13.2104002,6.53437239 L16.9266207,3.67241859 C15.3484997,1.51962149 13.0067717,0 9.36691191,0 C3.97075613,0 -2.84217094e-14,4.05232396 -2.84217094e-14,9.21903702 L-2.84217094e-14,9.26969107 C-2.84217094e-14,14.5630392 4.09802396,18.438074 9.18873695,18.438074 Z M23.7481761,18.0834957 L23.7481761,0.354578347 L18.8101845,0.354578347 L18.8101845,18.0834957 L23.7481761,18.0834957 Z M31.4351527,18.0834957 L31.4351527,12.7141664 L33.6241593,12.7141664 L37.213112,18.0834957 L42.889257,18.0834957 L38.6385116,11.9037016 C40.8529718,10.9666017 42.303825,9.16838297 42.303825,6.43306429 L42.303825,6.38241024 C42.303825,4.63484553 41.7693001,3.29251322 40.7257039,2.2541052 C39.5293864,1.06373504 37.6458226,0.354578347 34.9222911,0.354578347 L26.4971611,0.354578347 L26.4971611,18.0834957 L31.4351527,18.0834957 Z M34.7186626,8.86445867 L31.4351527,8.86445867 L31.4351527,4.58419148 L34.693209,4.58419148 C36.3222372,4.58419148 37.3658334,5.29334818 37.3658334,6.71166156 L37.3658334,6.76231561 C37.3658334,8.05399388 36.3731443,8.86445867 34.7186626,8.86445867 Z M52.892508,18.438074 C56.812357,18.438074 59.0777243,16.7411634 60.7576596,14.4364041 L57.0414391,11.8023935 C55.9723894,13.0940718 54.8778861,13.9551906 53.0197758,13.9551906 C50.5253265,13.9551906 48.7690305,11.8783746 48.7690305,9.21903702 L48.7690305,9.16838297 C48.7690305,6.58502644 50.5253265,4.45755636 53.0197758,4.45755636 C54.7251647,4.45755636 55.8960287,5.29334818 56.9141713,6.53437239 L60.6303917,3.67241859 C59.0522707,1.51962149 56.7105427,0 53.0706829,0 C47.6745272,0 43.703771,4.05232396 43.703771,9.21903702 L43.703771,9.26969107 C43.703771,14.5630392 47.801795,18.438074 52.892508,18.438074 Z M75.9534378,18.0834957 L75.9534378,13.7779015 L67.3246793,13.7779015 L67.3246793,0.354578347 L62.3866877,0.354578347 L62.3866877,18.0834957 L75.9534378,18.0834957 Z M92.0400909,18.0834957 L92.0400909,13.9045366 L82.4695505,13.9045366 L82.4695505,11.0932368 L91.0219483,11.0932368 L91.0219483,7.21820206 L82.4695505,7.21820206 L82.4695505,4.50821041 L91.9128231,4.50821041 L91.9128231,0.354578347 L77.582466,0.354578347 L77.582466,18.0834957 L92.0400909,18.0834957 Z M105.555934,18.0834957 L105.555934,13.4739772 L107.363137,11.4984692 L111.868418,18.0834957 L117.773645,18.0834957 L110.799368,7.95268578 L117.544563,0.354578347 L111.715697,0.354578347 L105.555934,7.54745338 L105.555934,0.354578347 L100.617942,0.354578347 L100.617942,18.0834957 L105.555934,18.0834957 Z" id="tftmtwjenu-CIRCLEK" fill="#000000"></path>
      <path d="M11.5331921,64.2148622 L11.5331921,52.9986084 L17.0002542,52.9986084 C26.7507877,52.9986084 33.9086938,48.119538 33.9086938,38.8100473 L33.9086938,38.6978848 C33.9086938,30.0613693 27.4834868,24.9579738 17.5638689,24.9579738 L0.599067833,24.9579738 L0.599067833,64.2148622 L11.5331921,64.2148622 Z M16.7748084,44.4742555 L11.5331921,44.4742555 L11.5331921,34.0992207 L16.7184469,34.0992207 C20.607388,34.0992207 23.030931,35.8377401 23.030931,39.2026162 L23.030931,39.3147787 C23.030931,42.3992485 20.607388,44.4742555 16.7748084,44.4742555 Z M48.3372289,64.2148622 L48.3372289,52.3256332 L53.1843149,52.3256332 L61.1312815,64.2148622 L73.6998883,64.2148622 L64.2875236,50.5310326 C69.1909711,48.4560256 72.4035746,44.4742555 72.4035746,38.4174784 L72.4035746,38.3053159 C72.4035746,34.4357083 71.2199838,31.4634011 68.9091637,29.164069 C66.2601749,26.5282494 62.0894264,24.9579738 56.0587497,24.9579738 L37.4031047,24.9579738 L37.4031047,64.2148622 L48.3372289,64.2148622 Z M55.6078579,43.8012803 L48.3372289,43.8012803 L48.3372289,34.3235458 L55.5514965,34.3235458 C59.1586303,34.3235458 61.4694503,35.8938213 61.4694503,39.0343724 L61.4694503,39.1465349 C61.4694503,42.0066797 59.2713532,43.8012803 55.6078579,43.8012803 Z M96.6953661,65 C108.869443,65 118,55.8587531 118,44.586418 L118,44.4742555 C118,33.2019204 108.982166,24.1728361 96.8080891,24.1728361 C84.6340126,24.1728361 75.5034552,33.3140829 75.5034552,44.586418 L75.5034552,44.6985806 C75.5034552,55.9709157 84.5212896,65 96.6953661,65 Z M96.8080891,55.1857779 C90.7774123,55.1857779 86.6630253,50.2506262 86.6630253,44.586418 L86.6630253,44.4742555 C86.6630253,38.8100473 90.6646893,33.9870582 96.6953661,33.9870582 C102.726043,33.9870582 106.784068,38.8661286 106.784068,44.586418 L106.784068,44.6985806 C106.784068,50.3627888 102.782404,55.1857779 96.8080891,55.1857779 Z" id="tftmtwjenu-PRO" fill="#EE2E24"></path>
    </g>
  </g>
</svg>