<svg class="logo with-dark-mode item-2 photo-and-logo-column" width="300px" height="66px" xmlns="http://www.w3.org/2000/svg" xmlns:xlink="http://www.w3.org/1999/xlink" viewBox="0 0 300 66" version="1.1" aria-label="Flyt logo">
  <g id="pqzquchidq-Flyt-logo" stroke="none" stroke-width="1" fill="none" fill-rule="evenodd">
    <g id="pqzquchidq-Logo" transform="translate(-0.000000, -0.000000)">
      <path d="M95.975904,10.9945863 L96.8892538,0.954463573 C96.8894922,0.284700708 95.9592333,0.0723549578 95.6499983,0.672393599 L86.6484086,16.7275979 C86.4307988,17.1498474 86.7461837,17.6465034 87.2317889,17.6463323 L95.9736446,17.3430494 L95.0602948,27.3831721 C95.0600564,28.052935 95.9903153,28.2652807 96.2995503,27.6652421 L105.302775,11.6100372 C105.520385,11.1877878 105.203365,10.6911323 104.71776,10.6913034 L95.975904,10.9945863 Z" id="pqzquchidq-Fill-2" fill="#FFE000" transform="translate(95.975490, 14.168818) rotate(2.000000) translate(-95.975490, -14.168818) "></path>
      <path d="M48.9324395,57.2609467 C48.1664734,58.7374525 47.4388164,60.0435726 46.7494469,61.1793462 C46.0600774,62.3151199 45.2462505,63.2710483 44.307942,64.0471603 C43.3696335,64.8232723 43.1319564,65.1933893 40.9185587,65.8076007 C40.2031774,66.0061169 38.9457176,66.0750223 37.1461792,66.0143169 C33.8881398,65.9043777 31.3360728,63.1741174 31.4459791,59.9160769 C31.4598855,59.5038368 31.5169546,59.0944759 31.6160774,58.6946717 L31.6982873,58.3967147 C32.8855348,58.9646015 34.1685089,59.2485407 35.547248,59.2485407 C36.5047057,59.2485407 37.3089581,59.1444297 37.9600293,58.9362045 C38.6111005,58.7279793 39.1664176,58.4251109 39.6259973,58.0275901 C40.085577,57.6300693 40.4877032,57.1473728 40.832388,56.579486 C41.1770728,56.0115991 41.5600501,55.3490744 41.9813315,54.591892 L42.8430391,53.0018169 L37.1246009,33.7663837 C36.072406,30.2270564 38.0886252,26.5048922 41.6279525,25.4526973 C42.2463092,25.268868 42.8880166,25.1755017 43.5331199,25.1755017 L43.8770882,25.1755017 L48.4728621,43.4045776 L48.5877565,43.4045776 L55.7805548,28.3887154 C56.7211698,26.4250644 58.7052512,25.1755017 60.8825619,25.1755017 L68.9366088,25.1755017 L69.3890093,21.346159 C69.6948647,18.7572465 71.8894313,16.8066852 74.4963481,16.8066852 L78.542381,16.8066852 L77.3934376,24.9842145 L88,24.9842145 L87.7823604,26.5028769 C87.3468233,29.5420007 84.7435192,31.7988223 81.6733455,31.7988223 L76.4168356,31.7988223 L75.0955506,40.9985428 C74.9806557,41.7557252 74.9232091,42.4466438 74.9232091,43.0713193 C74.9232091,43.6959948 75.0285278,44.2354792 75.2391685,44.6897887 C75.4498092,45.1440981 75.8136377,45.4942898 76.3306648,45.7403741 C76.847692,45.9864583 77.5657745,46.1094986 78.4849339,46.1094986 C78.9445136,46.1094986 79.5477028,46.0621755 80.2945198,45.9675276 C80.7923978,45.9044291 81.0378081,45.8481389 81.0307507,45.7986569 L81.0385617,47.1130708 C81.0585967,50.4904676 78.336946,53.2446586 74.9595495,53.2647288 L74.9232091,53.2648368 L74.9232091,53.2648368 C73.4678734,53.2648368 72.1466016,53.1134026 70.9593541,52.8105296 C69.7721065,52.5076567 68.766791,52.0249601 67.9433774,51.3624255 C67.1199638,50.6998909 66.526349,49.8386088 66.162515,48.7785534 C65.7986811,47.718498 65.7125112,46.4313071 65.9040027,44.9169423 L67.7997595,31.7988223 L62.608,31.7986412 L48.9324395,57.2609467 Z M19.819275,9.0356412 C20.7001361,9.0356412 21.5618351,9.07349975 22.4043979,9.14921799 C23.2469606,9.22493624 24.051213,9.35744118 24.8171792,9.54673678 C24.1985885,12.6531413 21.9391001,15.1770878 18.9198196,16.1343488 C18.3587717,16.3122279 17.8734788,16.6245114 17.4639409,17.0711995 C16.9823083,17.5965222 16.1809554,18.860025 15.9128672,20.6772628 L15.2809483,25.0499695 L21.6575846,25.0499695 L21.3134513,27.4512894 C20.9505037,29.9838926 18.7810836,31.8645773 16.2226056,31.8645773 L14.3043463,31.8645773 L12.577319,44.1164102 C11.9002617,48.9195727 7.85353913,52.5139254 3.03123581,52.6454024 L2.75746435,52.649131 L5.68727023,31.8645773 L0,31.8645773 L0.280886478,29.9045861 C0.680128793,27.1187226 3.0664909,25.0499695 5.88081676,25.0499695 L6.66387219,25.0499695 L7.35323828,20.1661672 C7.58302812,18.6518024 7.91813328,17.222642 8.35856382,15.8786432 C8.79899436,14.5346444 9.47877912,13.3515646 10.3979385,12.3293683 C11.3170979,11.307172 12.5330509,10.5026778 14.045834,9.91586137 C15.5586172,9.32904499 17.4830783,9.0356412 19.819275,9.0356412 Z M29.3673895,9.63341381 C32.7757755,9.63341381 35.5388183,12.3964566 35.5388183,15.8048426 C35.5388183,16.0948105 35.5183819,16.3844179 35.477661,16.6715124 L31.5966498,44.0337599 C30.9153159,48.8373606 26.8666547,52.4302916 22.0432862,52.5617157 L21.7694554,52.5654429 L27.8588559,9.63341381 L29.3673895,9.63341381 Z" id="pqzquchidq-Combined-Shape" fill="#141824"></path>
    </g>
  </g>
</svg>