<svg class="logo with-dark-mode" width="300px" height="38px" xmlns="http://www.w3.org/2000/svg" xmlns:xlink="http://www.w3.org/1999/xlink" viewBox="0 0 300 38" version="1.1" aria-label="Orbit logo">
  <g id="nvbogrktti-Orbit-logo" stroke="none" stroke-width="1" fill="none" fill-rule="evenodd">
    <g id="nvbogrktti-Group">
      <ellipse id="nvbogrktti-Oval-Copy" fill="#00D4A1" cx="3.93835616" cy="6.64068627" rx="3.93835616" ry="3.95833333"></ellipse>
      <path d="M21.6306001,38 C29.3040623,38 35.2603861,32.1661972 35.2603861,24.4056338 C35.2603861,16.6450704 29.3040623,10.7577465 21.6306001,10.7577465 C13.9571379,10.7577465 8.05447471,16.6450704 8.05447471,24.4056338 C8.05447471,32.1661972 13.9571379,38 21.6306001,38 Z M21.6306001,32.2732394 C17.2840935,32.2732394 13.9571379,28.8478873 13.9571379,24.4056338 C13.9571379,19.9098592 17.2840935,16.484507 21.6306001,16.484507 C25.9771066,16.484507 29.3577228,19.9098592 29.3577228,24.4056338 C29.3577228,28.8478873 25.9771066,32.2732394 21.6306001,32.2732394 Z M44.8656289,37.4647887 L44.8656289,23.4957746 C44.8656289,18.7859155 47.9779423,16.1633803 51.7878431,16.1633803 C52.6464122,16.1633803 53.558642,16.3239437 54.4172112,16.5380282 L54.4172112,11.0788732 C53.6123026,10.9183099 52.7537334,10.7577465 51.9488248,10.7577465 C48.8365114,10.7577465 46.4217856,12.256338 44.8656289,14.771831 L44.8656289,11.2929577 L38.9093051,11.2929577 L38.9093051,37.4647887 L44.8656289,37.4647887 Z M72.5008249,38 C79.4766996,38 85.0037388,31.8985915 85.0037388,24.3521127 C85.0037388,16.8056338 79.4766996,10.7577465 72.5008249,10.7577465 C68.2616395,10.7577465 65.042005,12.684507 63.1638849,16.0028169 L63.1638849,0 L57.2075611,0 L57.2075611,37.4647887 L63.1638849,37.4647887 L63.1638849,32.7549296 C65.042005,36.0732394 68.2616395,38 72.5008249,38 Z M71.2129711,32.3267606 C66.5981617,32.3267606 63.1638849,28.9014085 63.1638849,24.3521127 C63.1638849,19.856338 66.5981617,16.4309859 71.2129711,16.4309859 C75.6667988,16.4309859 79.1547361,19.9633803 79.1547361,24.3521127 C79.1547361,28.7943662 75.6667988,32.3267606 71.2129711,32.3267606 Z M93.991885,37.4647887 L93.991885,11.2929577 L88.0355612,11.2929577 L88.0355612,37.4647887 L93.991885,37.4647887 Z M111.780366,37.7859155 C112.746256,37.7859155 114.08777,37.6788732 115,37.4647887 L115,31.9521127 C114.409734,32.1126761 113.712146,32.1661972 113.068219,32.1661972 C110.170548,32.1661972 108.131446,30.828169 108.131446,27.5098592 L108.131446,16.9661972 L115,16.9661972 L115,11.2929577 L108.131446,11.2929577 L108.131446,4.28169014 L102.121462,4.28169014 L102.121462,11.2929577 L97.1310286,11.2929577 L97.1310286,16.9661972 L102.121462,16.9661972 L102.121462,27.6169014 C102.121462,34.2535211 105.985023,37.7859155 111.780366,37.7859155 Z" id="nvbogrktti-orbit" fill="#16171A" fill-rule="nonzero"></path>
    </g>
  </g>
</svg>