<svg class="logo" width="300px" height="40px" xmlns="http://www.w3.org/2000/svg" xmlns:xlink="http://www.w3.org/1999/xlink" viewBox="0 0 300 40" version="1.1" aria-label="Share logo">
  <defs>
    <filter color-interpolation-filters="auto" id="znjdhzlrso-filter-1">
      <feColorMatrix in="SourceGraphic" type="matrix" values="0 0 0 0 0.364706 0 0 0 0 0.364706 0 0 0 0 1.000000 0 0 0 1.000000 0"></feColorMatrix>
    </filter>
  </defs>
  <g id="znjdhzlrso-Share-logo" stroke="none" stroke-width="1" fill="none" fill-rule="evenodd">
    <g id="znjdhzlrso-Share-Logo" filter="url(#znjdhzlrso-filter-1)">
      <g>
        <path d="M13.4640876,40 C20.5586261,40 25.012132,36.5033113 25.012132,31.1523179 C25.012132,28.1854305 23.5103684,25.8013245 19.0568625,23.6291391 L14.0855071,21.192053 C12.2212488,20.2913907 11.8069691,19.9205298 11.8069691,18.8609272 C11.8069691,17.9072848 12.4801735,17.2715232 13.8265823,17.2715232 C15.1729911,17.2715232 16.7265396,18.0662252 19.3675722,19.3377483 L24.1317878,21.6688742 L26.7210354,16.1059603 L21.2318305,13.4569536 C18.1247333,11.9735099 16.8301095,11.3907285 13.5158726,11.3907285 C8.28559238,11.3907285 4.81600057,14.8874172 4.81600057,18.8609272 C4.81600057,22.410596 6.4213341,24.6357616 11.1337648,26.8609272 L15.1212061,28.8211921 C17.0372493,29.7748344 17.8658086,30.410596 17.8658086,31.6291391 C17.8658086,33.2715232 16.2604751,34.384106 13.6194425,34.384106 C9.32129143,34.384106 6.4213341,31.5231788 6.4213341,27.2847682 L6.4213341,25.9602649 L0,25.9602649 L0,27.7086093 C0,34.8609272 5.64455981,40 13.4640876,40 Z M46.7256704,11.3907285 C42.4793043,11.3907285 39.3722072,13.3509934 37.3008091,16.3708609 L37.3008091,0 L30.7241201,0 L30.7241201,39.7350993 L37.3008091,39.7350993 L37.3008091,24.3178808 C39.5275621,20.1854305 42.0132398,18.1192053 45.6381864,18.1192053 C48.9524234,18.1192053 50.9202516,20.0264901 50.9202516,24 L50.9202516,39.7350993 L57.4969405,39.7350993 L57.4969405,23.2582781 C57.4969405,14.5165563 52.4220152,11.3907285 46.7256704,11.3907285 Z M86.3018451,11.6556291 L86.3018451,18.1192053 C84.1268771,13.8278146 79.8287261,11.3907285 74.8055857,11.3907285 C67.1931977,11.3907285 61.2897131,17.6423841 61.2897131,25.6953642 C61.2897131,33.7483444 67.1931977,40 74.8055857,40 C79.8287261,40 84.1268771,37.5629139 86.3018451,33.2715232 L86.3018451,39.7350993 L92.8785341,39.7350993 L92.8785341,11.6556291 L86.3018451,11.6556291 Z M84.7482965,27.0728477 C82.3144038,31.3642384 79.6215862,33.2715232 75.8930697,33.2715232 C71.128854,33.2715232 68.1253268,30.3576159 68.1253268,25.6953642 C68.1253268,21.0331126 71.128854,18.1192053 75.8930697,18.1192053 C79.6215862,18.1192053 82.3144038,20.0264901 84.7482965,24.3178808 L85.4732859,25.6953642 L84.7482965,27.0728477 Z M97.8961903,39.7350993 L104.472879,39.7350993 L104.472879,25.589404 L118.144107,16.2119205 L114.82987,11.1258278 L104.472879,18.2251656 L104.472879,11.6556291 L97.8961903,11.6556291 L97.8961903,39.7350993 Z M134.614419,40 C138.446505,40 141.657172,38.5165563 144.091065,37.2450331 L147.923151,35.2317881 L145.178549,29.7218543 L141.708957,31.4172185 C139.171494,32.6887417 137.566161,33.3774834 134.355494,33.3774834 C129.953773,33.3774834 126.898461,31.3642384 126.639536,27.8145695 L147.974936,27.8145695 C148.389216,18.5960265 143.676785,11.3907285 133.16444,11.3907285 C124.827063,11.3907285 119.337858,17.5364238 119.337858,25.1655629 C119.337858,34.384106 125.500267,40 134.614419,40 Z M127.41631,21.986755 C127.778805,19.3377483 130.368053,17.9072848 133.319795,17.9072848 C136.737602,17.9072848 139.171494,19.602649 139.223279,21.986755 L127.41631,21.986755 Z" id="znjdhzlrso-Shape" fill="#0F0F29" fill-rule="nonzero"></path>
      </g>
    </g>
  </g>
</svg>