
<svg class="logo with-dark-mode" width="300px" height="46px" xmlns="http://www.w3.org/2000/svg" xmlns:xlink="http://www.w3.org/1999/xlink" viewBox="0 0 300 46" version="1.1" aria-label="Spoton logo">
  <g id="lrkxstzlyf-Spoton-logo" stroke="none" stroke-width="1" fill="none" fill-rule="evenodd">
    <g id="lrkxstzlyf-logo" fill-rule="nonzero">
      <g id="lrkxstzlyf-Group">
        <path d="M151.971832,36.9654973 L158.552199,36.9654973 L158.552199,23.2737172 C158.552199,19.6256545 160.791832,17.2474869 164.209005,17.2474869 C167.533822,17.2474869 169.773456,19.6256545 169.773456,23.2737172 L169.773456,36.9654973 L176.376911,36.9654973 L176.376911,22.4656022 C176.376911,15.3080105 172.359424,10.9210995 165.848325,10.9210995 C162.70822,10.9210995 160.14534,12.4680628 158.552199,15.1232984 L158.552199,11.4752356 L151.971832,11.4752356 L151.971832,36.9654973 Z M103.04623,37.3349214 C103.99288,37.3349214 105.424398,37.1963875 106.371047,36.9654973 L106.371047,30.893089 C105.770733,31.0316231 105.101152,31.077801 104.45466,31.077801 C101.799424,31.077801 99.8368587,29.8540838 99.8368587,26.8756022 L99.8368587,17.732356 L106.371047,17.732356 L106.371047,11.4752356 L99.8368587,11.4752356 L99.8368587,4.73324607 L93.2564921,4.73324607 L93.2564921,11.4752356 L88.4770681,11.4752356 L88.4770681,17.732356 L93.2564921,17.732356 L93.2564921,26.9910472 C93.3026702,33.6406806 97.204712,37.3349214 103.04623,37.3349214 Z M73.7231936,31.170157 C69.8904189,31.170157 66.9812042,28.1685865 66.9812042,24.2434555 C66.9812042,20.2259686 69.8904189,17.2705759 73.7231936,17.2705759 C77.5559686,17.2705759 80.5575393,20.2259686 80.5575393,24.2434555 C80.5575393,28.1685865 77.5559686,31.170157 73.7231936,31.170157 Z M73.7231936,37.4734555 C81.2040314,37.4734555 86.9993717,31.8166492 86.9993717,24.2434555 C86.9993717,16.6702618 81.2040314,10.9210995 73.7231936,10.9210995 C66.242356,10.9210995 60.5393717,16.6702618 60.5393717,24.2434555 C60.5393717,31.8166492 66.242356,37.4734555 73.7231936,37.4734555 Z M44.2616231,31.2163351 C40.2441361,31.2163351 37.1963875,28.1685865 37.1963875,24.1972774 C37.1963875,20.2259686 40.2441361,17.2243979 44.2616231,17.2243979 C48.1867538,17.2243979 51.2806806,20.3183246 51.2806806,24.1972774 C51.2806806,28.1224084 48.1636649,31.2163351 44.2616231,31.2163351 Z M30.6160209,45.6469634 L37.1963875,45.6469634 L37.1963875,32.8787435 C38.9742408,35.8341361 41.9065445,37.4965445 45.7162304,37.4965445 C52.4120418,37.4965445 57.722513,31.5626702 57.722513,24.2203666 C57.722513,16.9242408 52.4351309,10.9441885 45.7162304,10.9441885 C41.8834555,10.9441885 38.9742408,12.6296859 37.1963875,15.6081675 L37.1963875,11.4752356 L30.6160209,11.4752356 L30.6160209,45.6469634 Z M13.7379581,37.4734555 C21.3111518,37.4734555 26.9217801,32.7632985 26.9217801,26.436911 C26.9217801,12.4218848 7.20376963,17.3167539 7.20376963,10.5054974 C7.20376963,8.08115184 9.35104712,6.53418848 12.6296859,6.53418848 C16.2777487,6.53418848 18.5635602,8.77382199 18.6559162,11.8215707 L25.7673298,11.8215707 C25.7673298,5.54136125 21.5882199,0.0230890052 12.9067539,0.0230890052 C5.74916231,0.0230890052 0.461780105,4.45617801 0.461780105,10.5516754 C0.461780105,23.8740314 20.0874346,19.1176963 20.0874346,26.436911 C20.0874346,29.1845027 17.4321989,30.962356 13.7379581,30.962356 C9.67429319,30.962356 6.85743455,28.5841885 6.85743455,25.0284816 L0.0461780105,25.0284816 C0.0461780105,32.2784293 5.79534032,37.4734555 13.7379581,37.4734555 Z" id="lrkxstzlyf-Shape" fill="#000000"></path>
        <path d="M147.815812,18.6790052 C147.815812,29.1383246 139.319058,37.7505236 128.882827,37.7505236 C118.423508,37.7505236 109.996021,29.3461256 109.996021,18.9098953 C109.996021,8.47366492 118.446597,0.0230890052 128.882827,0.0230890052 C132.53089,0.0230890052 135.186126,0.761937172 137.725916,2.2165445 L132.99267,7.36539268 C131.792042,6.6034555 130.337435,6.28020943 128.882827,6.28020943 C121.909948,6.28020943 116.253141,11.9370157 116.253141,18.9098953 C116.253141,25.8827749 121.909948,31.4934032 128.882827,31.4934032 C135.855707,31.4934032 141.558691,25.8827749 141.558691,18.9098953 C141.558691,17.0858639 141.166178,15.2618325 140.565864,14.3382723 L128.744293,26.2060209 L120.801675,18.7251833 L124.911518,14.5229843 L128.744293,18.3095811 L141.974293,5.17193717 C145.483822,8.58910995 147.815812,13.206911 147.815812,18.6790052 Z" id="lrkxstzlyf-Path" fill="#FF6400"></path>
      </g>
    </g>
  </g>
</svg>